<svg width="41" height="40" fill="none" xmlns="http://www.w3.org/2000/svg"><path d="M20.362.865c10.85 0 19.64 8.553 19.64 19.11 0 10.556-8.79 19.109-19.64 19.109-10.849 0-19.64-8.553-19.64-19.11C.723 9.418 9.514.864 20.363.864zM18.074 11.93l5.979 5.579H9.593c-1.054 0-1.901.824-1.901 1.849v1.233c0 1.024.847 1.849 1.9 1.849h14.46l-5.978 5.579a1.817 1.817 0 00-.032 2.643l.871.84a1.93 1.93 0 002.685 0l10.508-10.218a1.807 1.807 0 000-2.612L21.598 8.439a1.93 1.93 0 00-2.685 0l-.871.84a1.826 1.826 0 00.032 2.65z" fill="#fff"/></svg>