<svg width="13" height="13" fill="none" xmlns="http://www.w3.org/2000/svg"><path d="M12.83 4.505L9.58 7.958c-.342.364-.913.094-.913-.443V5.688c-3.263.025-4.64.892-3.72 4.35.102.381-.29.675-.564.44-.88-.75-1.675-2.188-1.675-3.64 0-3.654 2.654-4.38 5.959-4.4V.61c0-.538.571-.807.913-.443l3.25 3.452a.663.663 0 010 .886zM8.667 9.626v1.749H1.444V3.25h1.15a.245.245 0 00.106-.024.273.273 0 00.089-.07A4.475 4.475 0 013.94 2.2c.251-.148.158-.575-.125-.575H1.083C.485 1.625 0 2.171 0 2.844v8.937C0 12.454.485 13 1.083 13h7.945c.598 0 1.083-.546 1.083-1.219V9.526c0-.21-.185-.357-.361-.287a1.452 1.452 0 01-.772.086c-.164-.026-.311.115-.311.301z" fill="#fff"/></svg>