<svg width="18" height="18" fill="none" xmlns="http://www.w3.org/2000/svg"><path d="M7.594 0h2.812c.468 0 .844.376.844.844V6.75h3.083c.626 0 .939.756.496 1.199l-5.347 5.35a.681.681 0 01-.96 0L3.168 7.95a.702.702 0 01.495-1.199H6.75V.844c0-.468.376-.844.844-.844zM18 13.219v3.937a.842.842 0 01-.844.844H.844A.842.842 0 010 17.156V13.22c0-.468.376-.844.844-.844H6l1.723 1.723a1.802 1.802 0 002.552 0L12 12.375h5.157c.468 0 .844.376.844.844zm-4.36 3.094a.705.705 0 00-.703-.704.705.705 0 00-.703.704c0 .386.317.703.704.703a.705.705 0 00.703-.703zm2.25 0a.705.705 0 00-.703-.704.705.705 0 00-.703.704c0 .386.317.703.704.703a.705.705 0 00.703-.703z" fill="#fff"/></svg>