<svg width="25" height="21" fill="none" xmlns="http://www.w3.org/2000/svg"><path d="M14.844 2.492c0 1.048-1.05 1.897-2.344 1.897-1.294 0-2.344-.85-2.344-1.897 0-1.048 1.05-1.897 2.344-1.897 1.294 0 2.344.85 2.344 1.897zM12.5 17.033c-1.294 0-2.344.85-2.344 1.897 0 1.047 1.05 1.897 2.344 1.897 1.294 0 2.344-.85 2.344-1.897 0-1.048-1.05-1.897-2.344-1.897zm10.156-8.219c-1.294 0-2.343.85-2.343 1.897 0 1.047 1.049 1.897 2.343 1.897 1.295 0 2.344-.85 2.344-1.897 0-1.048-1.05-1.897-2.344-1.897zM4.688 10.711c0-1.048-1.05-1.897-2.344-1.897-1.295 0-2.344.85-2.344 1.897 0 1.047 1.05 1.897 2.344 1.897 1.294 0 2.344-.85 2.344-1.897zm.63 3.915c-1.294 0-2.343.85-2.343 1.897 0 1.047 1.049 1.896 2.343 1.896 1.295 0 2.344-.849 2.344-1.896 0-1.048-1.05-1.897-2.344-1.897zm14.364 0c-1.295 0-2.344.85-2.344 1.897 0 1.047 1.05 1.896 2.343 1.896 1.295 0 2.344-.849 2.344-1.896 0-1.048-1.049-1.897-2.343-1.897zM5.317 3.003c-1.294 0-2.343.849-2.343 1.896 0 1.048 1.049 1.897 2.343 1.897 1.295 0 2.344-.85 2.344-1.897 0-1.047-1.05-1.896-2.344-1.896z" fill="#fff"/></svg>