<svg width="30" height="31" fill="none" xmlns="http://www.w3.org/2000/svg"><path d="M15.003 8.078a7.679 7.679 0 00-7.69 7.692 7.679 7.679 0 007.69 7.692 7.679 7.679 0 007.69-7.692 7.679 7.679 0 00-7.69-7.692zm0 12.693c-2.75 0-5-2.243-5-5.001 0-2.758 2.243-5 5-5 2.758 0 5 2.242 5 5s-2.249 5-5 5zm9.799-13.007a1.79 1.79 0 01-1.794 1.794 1.794 1.794 0 111.794-1.794zm5.093 1.82c-.114-2.403-.663-4.531-2.423-6.285C25.718 1.545 23.59.996 21.187.875c-2.476-.14-9.898-.14-12.374 0-2.396.114-4.525.663-6.285 2.417C.768 5.046.226 7.175.105 9.578c-.14 2.477-.14 9.9 0 12.377.114 2.404.663 4.532 2.423 6.286 1.76 1.754 3.882 2.303 6.285 2.424 2.476.14 9.898.14 12.374 0 2.403-.114 4.531-.663 6.285-2.424 1.753-1.754 2.302-3.882 2.423-6.286.14-2.476.14-9.894 0-12.37zm-3.2 15.029a5.062 5.062 0 01-2.85 2.852c-1.975.783-6.66.602-8.842.602-2.181 0-6.873.174-8.84-.602a5.062 5.062 0 01-2.852-2.852c-.783-1.975-.602-6.66-.602-8.843 0-2.182-.174-6.875.602-8.843a5.062 5.062 0 012.851-2.852c1.975-.783 6.66-.602 8.841-.602 2.182 0 6.874-.174 8.841.602a5.062 5.062 0 012.851 2.852c.784 1.975.603 6.66.603 8.843 0 2.182.18 6.875-.602 8.843z" fill="#fff"/></svg>