<svg width="30" height="31" fill="none" xmlns="http://www.w3.org/2000/svg"><path d="M27.857.77H2.137C.956.77 0 1.741 0 2.933v25.674C0 29.8.958 30.77 2.136 30.77h25.721c1.179 0 2.143-.971 2.143-2.163V2.933C30 1.741 29.036.77 27.857.77zM9.067 26.484H4.621V12.167h4.453v14.317h-.007zM6.844 10.212a2.58 2.58 0 010-5.156 2.584 2.584 0 012.578 2.578 2.575 2.575 0 01-2.578 2.578zm18.89 16.272h-4.446V19.52c0-1.66-.034-3.797-2.31-3.797-2.317 0-2.672 1.808-2.672 3.676v7.085h-4.447V12.167h4.266v1.956h.06c.596-1.125 2.05-2.31 4.212-2.31 4.5 0 5.337 2.966 5.337 6.823v7.848z" fill="#fff"/></svg>