<svg width="19" height="14" fill="none" xmlns="http://www.w3.org/2000/svg"><path d="M18.64 4.623c.145-.113.36-.007.36.171v7.456c0 .966-.798 1.75-1.781 1.75H1.78C.798 14 0 13.216 0 12.25V4.798c0-.182.212-.284.36-.171.831.634 1.933 1.44 5.719 4.141.783.562 2.104 1.743 3.421 1.736 1.325.01 2.672-1.196 3.425-1.736 3.785-2.701 4.884-3.51 5.715-4.145zM9.5 9.333c.86.015 2.1-1.064 2.724-1.509 4.924-3.511 5.299-3.817 6.435-4.692a.867.867 0 00.341-.69V1.75C19 .784 18.202 0 17.219 0H1.78C.798 0 0 .784 0 1.75v.693c0 .27.126.521.341.689 1.136.871 1.51 1.181 6.435 4.692.624.445 1.863 1.524 2.724 1.51z" fill="#3F3F3F"/></svg>