<svg width="41" height="40" viewBox="0 0 41 40" fill="none" xmlns="http://www.w3.org/2000/svg">
<path d="M20.3623 0.864502C31.2115 0.864502 40.0017 9.41765 40.0017 19.9742C40.0017 30.5308 31.2115 39.084 20.3623 39.084C9.51312 39.084 0.7229 30.5308 0.7229 19.9742C0.7229 9.41765 9.51312 0.864502 20.3623 0.864502ZM18.0737 11.9297L24.0526 17.5085H9.59231C8.53907 17.5085 7.69172 18.333 7.69172 19.3578V20.5907C7.69172 21.6155 8.53907 22.44 9.59231 22.44H24.0526L18.0737 28.0188C17.3055 28.7354 17.2897 29.9298 18.042 30.6618L18.9131 31.5017C19.6575 32.2261 20.8612 32.2261 21.5977 31.5017L32.1063 21.2842C32.8507 20.5599 32.8507 19.3886 32.1063 18.672L21.5977 8.43905C20.8533 7.71473 19.6496 7.71473 18.9131 8.43905L18.042 9.27895C17.2897 10.0187 17.3055 11.213 18.0737 11.9297Z" fill="white"/>
</svg>
