<svg width="13" height="13" viewBox="0 0 13 13" fill="none" xmlns="http://www.w3.org/2000/svg">
<path d="M12.8303 4.50548L9.58025 7.95822C9.23766 8.3222 8.66666 8.05235 8.66666 7.51521V5.68802C5.40368 5.71265 4.02715 6.57956 4.94778 10.0388C5.04896 10.419 4.65785 10.7133 4.3834 10.4788C3.50394 9.72724 2.70832 8.2897 2.70832 6.83865C2.70832 3.184 5.36247 2.45877 8.66666 2.43815V0.609646C8.66666 0.0720256 9.23805 -0.196963 9.58025 0.166631L12.8303 3.61945C13.0565 3.85972 13.0566 4.26501 12.8303 4.50548ZM8.66666 9.62626V11.375H1.44443V3.24997H2.59358C2.63005 3.24994 2.66614 3.24162 2.69968 3.22551C2.73322 3.20939 2.76352 3.18582 2.78876 3.1562C3.12624 2.76092 3.51633 2.44805 3.94012 2.19958C4.19132 2.05229 4.09824 1.62497 3.81497 1.62497H1.08332C0.485007 1.62497 -1.01328e-05 2.17061 -1.01328e-05 2.84372V11.7812C-1.01328e-05 12.4543 0.485007 13 1.08332 13H9.02777C9.62608 13 10.1111 12.4543 10.1111 11.7812V9.52637C10.1111 9.31594 9.9261 9.16923 9.74974 9.23941C9.50249 9.33779 9.2377 9.36721 8.97811 9.32515C8.81403 9.29859 8.66666 9.43976 8.66666 9.62626Z" fill="white"/>
</svg>
