<svg width="30" height="31" viewBox="0 0 30 31" fill="none" xmlns="http://www.w3.org/2000/svg">
<path d="M26.7857 0.77002H3.21429C2.3618 0.77002 1.54424 1.10867 0.941442 1.71146C0.338647 2.31426 0 3.13182 0 3.98431L0 27.5557C0 28.4082 0.338647 29.2258 0.941442 29.8286C1.54424 30.4314 2.3618 30.77 3.21429 30.77H12.4051V20.5707H8.18638V15.77H12.4051V12.1111C12.4051 7.94926 14.8828 5.65038 18.6777 5.65038C20.4951 5.65038 22.3955 5.97448 22.3955 5.97448V10.0593H20.3016C18.2384 10.0593 17.5949 11.3397 17.5949 12.6528V15.77H22.2007L21.4641 20.5707H17.5949V30.77H26.7857C27.6382 30.77 28.4558 30.4314 29.0586 29.8286C29.6614 29.2258 30 28.4082 30 27.5557V3.98431C30 3.13182 29.6614 2.31426 29.0586 1.71146C28.4558 1.10867 27.6382 0.77002 26.7857 0.77002Z" fill="white"/>
</svg>
