<svg width="25" height="21" viewBox="0 0 25 21" fill="none" xmlns="http://www.w3.org/2000/svg">
<path d="M14.8438 2.49202C14.8438 3.53954 13.7944 4.3887 12.5 4.3887C11.2056 4.3887 10.1562 3.53954 10.1562 2.49202C10.1562 1.4445 11.2056 0.595337 12.5 0.595337C13.7944 0.595337 14.8438 1.4445 14.8438 2.49202ZM12.5 17.0332C11.2056 17.0332 10.1562 17.8824 10.1562 18.9299C10.1562 19.9774 11.2056 20.8266 12.5 20.8266C13.7944 20.8266 14.8438 19.9774 14.8438 18.9299C14.8438 17.8824 13.7944 17.0332 12.5 17.0332ZM22.6562 8.81429C21.3618 8.81429 20.3125 9.66345 20.3125 10.711C20.3125 11.7585 21.3618 12.6076 22.6562 12.6076C23.9507 12.6076 25 11.7585 25 10.711C25 9.66345 23.9507 8.81429 22.6562 8.81429ZM4.6875 10.711C4.6875 9.66345 3.63818 8.81429 2.34375 8.81429C1.04932 8.81429 0 9.66345 0 10.711C0 11.7585 1.04932 12.6076 2.34375 12.6076C3.63818 12.6076 4.6875 11.7585 4.6875 10.711ZM5.31846 14.626C4.02402 14.626 2.97471 15.4751 2.97471 16.5226C2.97471 17.5702 4.02402 18.4193 5.31846 18.4193C6.61289 18.4193 7.66221 17.5702 7.66221 16.5226C7.66221 15.4752 6.61284 14.626 5.31846 14.626ZM19.6815 14.626C18.3871 14.626 17.3378 15.4751 17.3378 16.5226C17.3378 17.5702 18.3871 18.4193 19.6815 18.4193C20.976 18.4193 22.0253 17.5702 22.0253 16.5226C22.0253 15.4752 20.976 14.626 19.6815 14.626ZM5.31846 3.00262C4.02402 3.00262 2.97471 3.85178 2.97471 4.8993C2.97471 5.94682 4.02402 6.79598 5.31846 6.79598C6.61289 6.79598 7.66221 5.94682 7.66221 4.8993C7.66221 3.85178 6.61284 3.00262 5.31846 3.00262Z" fill="white"/>
</svg>
