<svg width="30" height="31" viewBox="0 0 30 31" fill="none" xmlns="http://www.w3.org/2000/svg">
<path d="M15.0033 8.0784C10.7468 8.0784 7.31344 11.5125 7.31344 15.77C7.31344 20.0275 10.7468 23.4616 15.0033 23.4616C19.2599 23.4616 22.6933 20.0275 22.6933 15.77C22.6933 11.5125 19.2599 8.0784 15.0033 8.0784ZM15.0033 20.7706C12.2527 20.7706 10.0039 18.528 10.0039 15.77C10.0039 13.012 12.246 10.7695 15.0033 10.7695C17.7607 10.7695 20.0028 13.012 20.0028 15.77C20.0028 18.528 17.754 20.7706 15.0033 20.7706ZM24.8015 7.76377C24.8015 8.76121 23.9983 9.55781 23.0078 9.55781C22.0106 9.55781 21.2142 8.75451 21.2142 7.76377C21.2142 6.77303 22.0173 5.96973 23.0078 5.96973C23.9983 5.96973 24.8015 6.77303 24.8015 7.76377ZM29.8946 9.58459C29.7808 7.18138 29.232 5.05263 27.4718 3.29875C25.7184 1.54487 23.5901 0.995948 21.1874 0.875453C18.7111 0.734875 11.2889 0.734875 8.8126 0.875453C6.41662 0.989254 4.28834 1.53818 2.52817 3.29205C0.767987 5.04593 0.225878 7.17468 0.10541 9.5779C-0.0351366 12.0547 -0.0351366 19.4786 0.10541 21.9554C0.219186 24.3587 0.767987 26.4874 2.52817 28.2413C4.28834 29.9952 6.40993 30.5441 8.8126 30.6646C11.2889 30.8052 18.7111 30.8052 21.1874 30.6646C23.5901 30.5508 25.7184 30.0019 27.4718 28.2413C29.2253 26.4874 29.7741 24.3587 29.8946 21.9554C30.0351 19.4786 30.0351 12.0614 29.8946 9.58459ZM26.6955 24.613C26.1735 25.9251 25.1629 26.9359 23.8444 27.4648C21.8701 28.248 17.1852 28.0672 15.0033 28.0672C12.8215 28.0672 8.12995 28.2413 6.1623 27.4648C4.85053 26.9426 3.83993 25.9318 3.31121 24.613C2.52817 22.6383 2.70887 17.9523 2.70887 15.77C2.70887 13.5877 2.53486 8.89509 3.31121 6.927C3.83324 5.61494 4.84384 4.60412 6.1623 4.07527C8.13664 3.29205 12.8215 3.4728 15.0033 3.4728C17.1852 3.4728 21.8767 3.29875 23.8444 4.07527C25.1562 4.59742 26.1668 5.60824 26.6955 6.927C27.4785 8.90178 27.2978 13.5877 27.2978 15.77C27.2978 17.9523 27.4785 22.6449 26.6955 24.613Z" fill="white"/>
</svg>
