<svg width="30" height="31" viewBox="0 0 30 31" fill="none" xmlns="http://www.w3.org/2000/svg">
<path d="M27.8571 0.77002H2.13616C0.957589 0.77002 0 1.741 0 2.93297V28.6071C0 29.799 0.957589 30.77 2.13616 30.77H27.8571C29.0357 30.77 30 29.799 30 28.6071V2.93297C30 1.741 29.0357 0.77002 27.8571 0.77002ZM9.06696 26.4843H4.62054V12.1673H9.07366V26.4843H9.06696ZM6.84375 10.212C5.41741 10.212 4.26562 9.0535 4.26562 7.63386C4.26562 6.21422 5.41741 5.05573 6.84375 5.05573C8.26339 5.05573 9.42187 6.21422 9.42187 7.63386C9.42187 9.0602 8.27009 10.212 6.84375 10.212ZM25.7344 26.4843H21.2879V19.52C21.2879 17.8593 21.2545 15.7231 18.9777 15.7231C16.6607 15.7231 16.3058 17.5312 16.3058 19.3995V26.4843H11.8594V12.1673H16.125V14.1227H16.1853C16.7812 12.9977 18.2344 11.8124 20.3973 11.8124C24.8973 11.8124 25.7344 14.7789 25.7344 18.6361V26.4843Z" fill="white"/>
</svg>
